<svg xmlns="http://www.w3.org/2000/svg" width="379px" height="69px" viewBox="0 0 7580 1380" preserveAspectRatio="xMidYMid meet"><g fill="purple"><path d="M6561 963 c2-175 1-178-20-181-24-4-25-8-7-42 12-21 20-24 58-21 23 1 46 8 50 14 4 7 11 7 22-3 20-16 85-17 114-1 36 19 56 69 56 138-1 94-39 136-139 150 l-45 6 0 58 0 59-46 0-45 0 2-177z m163-36 c9-7 20-31 23-54 4-33 1-45-16-62-45-45-74-22-79 63 l-4 66 29 0 c16 0 37-6 47-13z"/><path d="M1864 1011 c-2-2-4-95-4-206 l0-201 118 1 117 1-3 24 c-7 46-16 53-78 54 l-59 1 0 35 0 35 58 3 57 3 0 39 0 39-57 3-58 3 0 45 0 45 65 1 c93 2 89 0 86 41 l-2 38-118 0 c-65 0-120-2-122-4z"/><path d="M2219 1006 c-53-17-59-40-59-233 l0-173 45 0 44 0-4 102 c-2 57 0 132 3 168 7 61 9 65 34 68 24 3 27 7 24 40-2 31-5 36-28 37-14 1-41-3-59-9z"/><path d="M2513 1009 c-37-11-38-13-22-58 11-30 13-31 48-24 73 15 121 0 121-37 0-22-13-32-71-54-69-25-94-57-94-118 0-43 4-53 32-78 18-16 48-32 68-36 32-6 141 9 153 20 5 5-30 66-38 66-3 0-21-4-40-9-48-11-80 2-80 32 0 19 13 29 73 58 66 31 73 37 85 77 31 97-37 173-153 171-27 0-65-5-82-10z"/><path d="M2822 1011 c-4-4-7-78-7-166 0-160 0-160-22-158-28 3-28-1-3-42 18-29 25-33 63-31 l42 1 3 63 c2 34 4 62 6 62 2 0 17-7 35-16 25-13 37-13 66-4 57 19 65 42 66 174 1 65 0 118-2 120-2 2-23 1-47-2 l-44-4 2-87 c2-112 3-109-20-121-15-8-24-6-40 10-17 17-20 33-20 114 l0 94-35-1 c-19-1-39-3-43-6z"/><path d="M3202 1011 c-98-25-109-138-17-177 19-8 48-14 65-14 16 0 30-4 30-9 0-15-53-28-87-21-29 7-33 5-42-23-6-16-9-33-6-37 9-14 105-21 145-10 62 17 75 45 76 167 1 64-3 106-10 112-16 13-116 21-154 12z m76-98 c3-27 0-33-17-33-34 0-51 11-51 35 0 24 12 32 45 31 15-1 21-9 23-33z"/><path d="M3426 1012 c-3-5-5-81-5-168 2-155 1-159-20-162-25-4-26-10-2-41 13-18 28-24 64-25 l47-2 0 64 c0 50 3 62 13 55 41-33 112-22 138 21 17 27 19 47 17 146 l-3 115-35 0-35 0-6-99 c-6-108-19-133-62-117-20 8-22 16-25 110-3 99-3 101-27 101-13 0-30 3-38 6-8 3-18 1-21-4z"/><path d="M3836 1010 c-89-17-129-134-79-232 17-35 46-51 107-58 53-5 78-30 31-30-23 0-25-3-19-22 11-40 33-56 67-52 18 1 35 3 40 3 4 1 7 88 7 195 l0 193-46 7 c-52 7-53 7-108-4z m84-145 l0-75-30 0 c-41 0-70 31-70 77 0 47 24 73 67 73 l33 0 0-75z"/><path d="M4215 1012 c-3-3-5-97-5-209 l0-204 114 3 c63 2 117 6 121 9 3 4 0 21-7 39-13 32-16 33-73 34 l-60 1 0 40 0 40 58 3 57 3 0 39 0 39-57 3-58 3 0 79 0 79-42 2 c-24 1-45-1-48-3z"/><path d="M4547 1010 c-58-18-88-65-89-139 0-102 47-156 138-155 90 2 136 51 136 148 1 60-16 101-52 127-30 22-95 31-133 19z m94-91 c14-27 6-109-12-120-21-13-55-11-68 5-21 26-25 83-7 111 21 33 70 35 87 4z"/><path d="M4805 1011 c-3-2-5-53-5-113 0-101-1-108-20-108-11 0-20-5-20-10 0-20 31-71 39-66 9 6 101 8 141 3 28-3 39 14 32 50-3 16-11 23-26 23-50 0-61 21-64 128 l-4 100-34-1 c-19-1-37-3-39-6z"/><path d="M5257 1014 c-4-4-7-81-7-171 l0-163-51 0-50 0 3-37 3-38 143-3 c154-3 155-2 130 53-9 20-18 25-50 25 l-39 0 2 168 2 167-39 3 c-22 2-43 0-47-4z"/><path d="M5445 1011 c-3-2-5-53-5-113 0-101-1-108-20-108-23 0-24-6-7-43 10-22 19-27 52-28 22-1 45 0 50 1 6 2 17 2 25 1 60-6 75-5 74 7-1 6-2 22-2 35-2 18-10 26-39 33-45 11-51 26-52 141 l-1 81-35-1 c-20-1-38-3-40-6z"/><path d="M5702 1005 c-21-10-38-26-48-50-29-70 27-135 117-135 20 0 29-4 26-12-2-9-24-13-60-13-58 0-66-7-67-56 0-22 86-34 141-19 63 17 79 52 79 177 0 93-2 102-20 108-43 14-136 13-168 0z m102-73 c12-19-7-52-29-52-27 0-49 24-41 45 6 16 61 21 70 7z"/><path d="M5957 1013 c-4-3-7-58-7-121 0-109-1-114-20-109-25 7-26-13-2-43 21-26 76-34 96-14 12 11 19 11 45-2 23-12 41-14 68-7 56 13 72 43 77 148 2 50 2 105-1 123-5 32-7 33-47 30 l-41-3-1-99 c-1-84-4-101-19-113-23-16-27-16-50 1-15 11-18 25-17 77 1 35 0 81-4 102-5 34-8 37-38 37-18 0-36-3-39-7z"/><path d="M6310 1013 c-35-6-42-16-34-47 6-24 10-26 56-25 49 2 81-13 63-30-6-5-26-14-46-20-49-16-73-44-73-86 0-68 70-104 163-84 l51 11-16 30 c-14 26-19 29-47 24-35-6-63 6-53 23 4 6 25 16 47 23 47 14 69 40 69 84 0 72-80 115-180 97z"/><path d="M6963 1008 c-121-33-117-255 6-288 73-19 143 8 167 65 29 71 10 177-38 209-29 19-93 26-135 14z m88-85 c17-20 17-97-1-118-18-22-67-19-80 4-5 11-10 36-10 56 0 20 5 45 10 56 13 24 62 25 81 2z"/><path d="M7224 1005 c-2-5-5-55-6-110-3-94-4-99-26-105-22-5-22-5-4-39 16-30 23-34 60-34 23 0 45 2 48 5 2 3 25 3 49 0 l45-5 0 37 c0 32-3 36-25 36-50 0-65 30-65 134 l0 94-36-1 c-20-1-38-6-40-12z"/><path d="M7500 1004 c-36-16-42-34-41-132 1-76 0-84-19-89-27-7-30-76-2-71 13 2 18-6 22-36 5-38 7-40 40-40 34 0 35 2 38 42 3 34 7 42 23 42 14 0 19 7 19 30 0 23-4 30-20 30-18 0-20 7-20 76 0 67 2 76 20 81 15 4 20 14 20 42 0 32-3 36-26 36-15 0-39-5-54-11z"/></g><g fill="#ffabab"><path d="M545 1372 c-6-4-32-14-59-20-82-21-174-83-272-184-145-148-197-273-189-456 9-207 110-381 283-486 88-53 172-77 283-82 180-7 309 47 457 190 99 95 148 168 185 270 18 51 22 82 22 186 0 151-20 221-97 336-78 117-200 203-341 239-61 16-256 21-272 7z m238-87 c317-67 488-430 341-722-20-40-43-78-52-85-12-11-12-7 2 21 33 62 47 116 52 196 12 165-34 285-155 406-63 63-89 81-155 108-142 59-297 53-441-16-45-22-47-22-25-3 14 11 57 36 96 56 106 53 213 66 337 39z m-47-65 c352-90 495-508 273-797-116-150-401-188-586-77-204 123-297 329-248 557 35 168 132 266 312 315 91 26 155 26 249 2z m-593-162 c-20-25-51-125-63-200-9-65-9-92 5-164 48-257 232-442 488-489 102-19 198-9 305 31 34 13 62 21 62 19 0-11-122-65-177-79-77-20-222-20-297-1-195 51-360 216-411 411-20 76-19 220 1 298 16 62 83 201 92 192 3-3 0-11-5-18z"/></g></svg>